<svg xmlns="http://www.w3.org/2000/svg" width="78.473" height="64.381" viewBox="0 0 78.473 64.381"><defs><style>.a{fill:#f18881;}</style></defs><path class="a" d="M87.7,110.6c-1.738,3.659-9.377,21.316-10.418,22.95-.12.192-.232.384-.336.569-1.017,1.738-2.09,3.075-5.789,3.075H35.848c.737,2.25,2.282,5.021,5.485,5.021H71.89a1.634,1.634,0,1,1,0,3.267H41.334c-4.532,0-7.847-3.547-9.081-8.992-.681-3-8.952-30.677-9.545-32.847a4.113,4.113,0,0,0-3.547-2.37H11.634a1.634,1.634,0,0,1,0-3.267h7.527c2.8,0,5.453.152,6.6,2.811a1.142,1.142,0,0,1,.072.216c.328,1.185,7.183,25.5,9.137,32.887H71.146c2.122,0,2.33-.368,2.963-1.449.128-.216.256-.44.408-.673.969-1.521,8.56-19.074,10.178-22.485.673-1.762.553-2.723.368-2.995-.12-.176-.512-.28-1.049-.28-3.539.056-48.478,0-50.039,0a1.638,1.638,0,0,1,0-3.275h0c.384,0,46.468.056,50.007,0a4.252,4.252,0,0,1,3.772,1.7C88.73,105.879,88.714,107.945,87.7,110.6Zm-47.237,36.5a7.643,7.643,0,1,1-7.639,7.639A7.657,7.657,0,0,1,40.461,147.094Zm0,12.147a4.5,4.5,0,1,0-4.5-4.5A4.5,4.5,0,0,0,40.461,159.242Z" transform="translate(-10 -98)"/><path class="a" d="M690.939,711.1a7.643,7.643,0,1,1-7.639,7.639A7.657,7.657,0,0,1,690.939,711.1Zm0,12.148a4.5,4.5,0,1,0-4.5-4.5A4.5,4.5,0,0,0,690.939,723.247Z" transform="translate(-629.385 -662.005)"/></svg>